# 3ds Max Wavefront OBJ Exporter v0.97b - (c)2007 guruware
# File Created: 22.02.2010 10:52:27

mtllib deskWorn_OBJ.mtl

#
# object deskWorn
#

v  13.3728 -0.0030 -23.1000
v  13.3728 -0.0030 -20.9000
v  11.1728 -0.0030 -20.9000
v  11.1728 -0.0030 -23.1000
v  11.1728 27.4925 -23.1000
v  13.3728 27.4925 -23.1000
v  11.1728 27.4925 -20.9000
v  13.3728 27.4925 -20.9000
v  -12.8272 -0.0030 -23.1000
v  -10.6272 -0.0030 -23.1000
v  -10.6272 -0.0030 -20.9000
v  -12.8272 -0.0030 -20.9000
v  -12.8272 27.4925 -20.9000
v  -12.8272 27.4925 -23.1000
v  -10.6272 27.4925 -20.9000
v  -10.6272 27.4925 -23.1000
v  11.1728 -0.0030 23.1000
v  11.1728 -0.0030 20.9000
v  13.3728 -0.0030 20.9000
v  13.3728 -0.0030 23.1000
v  13.3728 27.4925 23.1000
v  11.1728 27.4925 23.1000
v  13.3728 27.4925 20.9000
v  11.1728 27.4925 20.9000
v  -10.6272 -0.0030 23.1000
v  -12.8272 -0.0030 23.1000
v  -12.8272 -0.0030 20.9000
v  -10.6272 -0.0030 20.9000
v  -10.6272 27.4925 20.9000
v  -10.6272 27.4925 23.1000
v  -12.8272 27.4925 20.9000
v  -12.8272 27.4925 23.1000
v  -10.9272 23.5273 -21.0000
v  -10.9272 27.5273 -21.0000
v  -10.9273 27.5273 21.0000
v  -10.9273 23.5273 21.0000
v  -12.5272 23.5273 -21.0000
v  -12.5273 23.5273 21.0000
v  -12.5273 27.5273 21.0000
v  -12.5272 27.5273 -21.0000
v  -10.7080 23.5273 21.2000
v  -10.7080 27.5273 21.2000
v  11.2523 27.5273 21.2000
v  11.2523 23.5273 21.2000
v  -10.7080 23.5273 22.8000
v  11.2523 23.5273 22.8000
v  11.2523 27.5273 22.8000
v  -10.7080 27.5273 22.8000
v  11.4727 23.5273 21.0000
v  11.4727 27.5273 21.0000
v  11.4728 27.5273 -21.0000
v  11.4728 23.5273 -21.0000
v  13.0727 23.5273 21.0000
v  13.0728 23.5273 -21.0000
v  13.0728 27.5273 -21.0000
v  13.0727 27.5273 21.0000
v  11.2485 23.5273 -21.2000
v  11.2485 27.5273 -21.2000
v  -10.7118 27.5273 -21.2000
v  -10.7118 23.5273 -21.2000
v  11.2485 23.5273 -22.8000
v  -10.7118 23.5273 -22.8000
v  -10.7118 27.5273 -22.8000
v  11.2485 27.5273 -22.8000
v  15.0365 28.3936 24.6063
v  15.0365 28.3936 -24.6063
v  -14.4910 28.3936 -24.6063
v  -14.4910 28.3936 24.6063
v  -14.4910 27.4093 24.6063
v  -14.4910 27.4093 -24.6063
v  15.0365 27.4093 24.6063
v  15.0365 27.4093 -24.6063
# 72 vertices

vn 0.0000 -1.0000 -0.0000
vn 0.0000 0.0000 -1.0000
vn -1.0000 0.0000 -0.0000
vn 0.0000 0.0000 1.0000
vn 1.0000 0.0000 -0.0000
vn 0.0000 -0.0000 1.0000
vn 0.0000 -0.0000 -1.0000
vn -0.0000 -1.0000 -0.0000
vn 1.0000 -0.0000 -0.0000
vn -1.0000 -0.0000 0.0000
vn -1.0000 -0.0000 -0.0000
vn 1.0000 0.0000 0.0000
vn -0.0000 0.0000 1.0000
vn -0.0000 -1.0000 0.0000
vn 0.0000 -1.0000 0.0000
vn 0.0000 1.0000 -0.0000
# 16 vertex normals

vt 1.0508 0.9857 0.0000
vt 1.0508 0.9057 0.0000
vt 1.1309 0.9057 0.0000
vt 1.1309 0.9857 0.0000
vt 1.0000 0.7109 0.0000
vt 1.0000 0.8086 0.0000
vt 0.0000 0.8086 0.0000
vt 0.0000 0.7109 0.0000
vt 1.0000 0.9036 0.0000
vt 0.0000 0.9023 0.0000
vt 1.0000 1.0000 0.0000
vt 0.0000 1.0000 0.0000
vt 1.0000 0.8082 0.0000
vt 0.0000 0.8082 0.0000
vt 0.2269 0.8836 0.0000
vt 0.2269 0.8072 0.0000
vt 0.9965 0.8072 0.0000
vt 0.9965 0.8836 0.0000
vt 0.2258 0.9031 0.0000
vt 0.9975 0.9031 0.0000
vt 0.9975 0.9985 0.0000
vt 0.2258 0.9985 0.0000
vt 0.2269 0.8525 0.0000
vt 0.9965 0.8525 0.0000
vt 0.9964 0.8286 0.0000
vt 0.9964 0.9050 0.0000
vt 0.4349 0.9050 0.0000
vt 0.4349 0.8286 0.0000
vt 0.9975 0.8091 0.0000
vt 0.4339 0.8091 0.0000
vt 0.4339 0.7137 0.0000
vt 0.9975 0.7137 0.0000
vt 0.9964 0.8597 0.0000
vt 0.4349 0.8597 0.0000
vt 0.1407 0.9134 0.0000
vt 0.1407 0.9898 0.0000
vt 0.7021 0.9898 0.0000
vt 0.7021 0.9134 0.0000
vt 0.1396 0.9041 0.0000
vt 0.7031 0.9041 0.0000
vt 0.7031 0.8145 0.0000
vt 0.1396 0.8145 0.0000
vt 0.1407 0.9604 0.0000
vt 0.7021 0.9604 0.0000
vt 0.9759 0.6986 0.0000
vt 0.0255 0.6986 0.0000
vt 0.0255 0.0250 0.0000
vt 0.9759 0.0250 0.0000
vt 1.0039 -0.0000 -0.5000
vt 0.0000 0.0000 -0.5000
vt 1.0002 0.6988 0.0005
vt 1.0000 0.0248 0.0005
vt 0.9689 0.6566 0.9995
vt 0.9689 0.6989 0.9995
vt 0.0322 0.6989 0.9995
vt 0.0322 0.6566 0.9995
vt 0.0000 0.0252 -0.5000
vt 0.0000 0.6981 0.9995
vt 0.9757 0.0244 0.4500
vt 0.0253 0.0244 0.4500
vt 0.0253 0.6981 0.4500
vt 0.9757 0.6981 0.4500
# 62 texture coords

g deskWorn
usemtl Material__0
s 2
f 1/1/1 2/2/1 3/3/1 4/4/1 
s 8
f 1/5/2 4/6/2 5/7/2 6/8/2 
s 16
f 4/6/3 3/9/3 7/10/3 5/7/3 
s 32
f 3/9/4 2/11/4 8/12/4 7/10/4 
s 64
f 2/13/5 1/5/5 6/8/5 8/14/5 
s 2
f 9/1/1 10/2/1 11/3/1 12/4/1 
s 8
f 9/5/3 12/6/3 13/7/3 14/8/3 
s 16
f 12/6/4 11/9/4 15/10/4 13/7/4 
s 32
f 11/9/5 10/11/5 16/12/5 15/10/5 
s 64
f 10/13/2 9/5/2 14/8/2 16/14/2 
s 2
f 17/1/1 18/2/1 19/3/1 20/4/1 
s 8
f 17/5/6 20/6/6 21/7/6 22/8/6 
s 16
f 20/6/5 19/9/5 23/10/5 21/7/5 
s 32
f 19/9/7 18/11/7 24/12/7 23/10/7 
s 64
f 18/13/3 17/5/3 22/8/3 24/14/3 
s 2
f 25/1/8 26/2/8 27/3/8 28/4/8 
s 8
f 25/5/9 28/6/9 29/7/9 30/8/9 
s 16
f 28/6/2 27/9/2 31/10/2 29/7/2 
s 32
f 27/9/10 26/11/11 32/12/10 31/10/10 
s 64
f 26/13/4 25/5/4 30/8/4 32/14/4 
s 2
f 33/15/12 34/16/12 35/17/12 36/18/12 
s 4
f 37/19/3 38/20/3 39/21/3 40/22/3 
s 8
f 33/23/1 36/24/1 38/20/1 37/19/1 
s 2
f 41/25/2 42/26/2 43/27/2 44/28/2 
s 4
f 45/29/13 46/30/13 47/31/13 48/32/13 
s 8
f 41/33/8 44/34/8 46/30/8 45/29/8 
s 2
f 49/15/3 50/16/3 51/17/3 52/18/3 
s 4
f 53/19/12 54/20/12 55/21/12 56/22/12 
s 8
f 49/23/14 52/24/15 54/20/14 53/19/14 
s 2
f 57/35/13 58/36/13 59/37/13 60/38/13 
s 4
f 61/39/2 62/40/2 63/41/2 64/42/2 
s 8
f 57/43/15 60/44/15 62/40/15 61/39/15 
s 1
f 65/45/16 66/46/16 67/47/16 68/48/16 
s 2
f 69/49/3 68/48/3 67/47/3 70/50/3 
s 4
f 71/51/13 65/45/13 68/48/13 69/52/13 
s 2
f 72/53/5 66/54/5 65/55/5 71/56/5 
s 4
f 70/57/7 67/47/2 66/46/7 72/58/7 
s 1
f 69/59/1 70/60/1 72/61/1 71/62/1 
# 38 polygons

